<?xml version="1.0" encoding="UTF-8"?>
<!DOCTYPE svg PUBLIC "-//W3C//DTD SVG 1.1//EN" "http://www.w3.org/Graphics/SVG/1.1/DTD/svg11.dtd">
<!-- Creator: CorelDRAW 2020 (64-Bit) -->
<svg xmlns="http://www.w3.org/2000/svg" xml:space="preserve" width="29.6332mm" height="29.6332mm" version="1.1" style="shape-rendering:geometricPrecision; text-rendering:geometricPrecision; image-rendering:optimizeQuality; fill-rule:evenodd; clip-rule:evenodd"
viewBox="0 0 2963.32 2963.32"
 xmlns:xlink="http://www.w3.org/1999/xlink"
 xmlns:xodm="http://www.corel.com/coreldraw/odm/2003">
 <defs>
  <style type="text/css">
   <![CDATA[
    .fil0 {fill:url(#id0)}
   ]]>
  </style>
  <linearGradient id="id0" gradientUnits="userSpaceOnUse" x1="1905.63" y1="1404.24" x2="-301.13" y2="-802.52">
   <stop offset="0" style="stop-opacity:1; stop-color:#ED364D"/>
   <stop offset="1" style="stop-opacity:1; stop-color:#E8A52F"/>
  </linearGradient>
 </defs>
 <g id="Layer_x0020_1">
  <metadata id="CorelCorpID_0Corel-Layer"/>
  <path class="fil0" d="M600.98 99.59l0 0c76.63,-76.63 202.56,-76.01 278.57,0l123.97 123.97c76,76 76.63,201.94 0,278.57l0 0c-76.63,76.63 -201.94,76.63 -278.57,0l-123.97 -123.96c-76.63,-76.63 -76.63,-201.95 0,-278.58zm509.21 509.21l0 0c76.63,-76.63 202.31,-76.26 278.57,0l1176.31 1176.31c76.27,76.26 76.63,201.94 0,278.57l0 0c-76.63,76.63 -201.94,76.63 -278.57,0l-577.67 -577.67c-76.63,-76.63 -201.96,-76.61 -278.59,0.02l0 0c-76.61,76.61 -76.42,202.16 0,278.57l229.37 229.37c76.63,76.63 76.63,201.94 0,278.57l0 0c-76.63,76.63 -201.94,76.63 -278.57,0l-982.65 -982.65c-76.63,-76.63 -76.65,-201.96 -0.02,-278.59l0 0c76.63,-76.63 201.96,-76.61 278.59,0.02l277.36 277.36c76.63,76.63 201.96,76.61 278.57,0l0 0c76.63,-76.63 76.65,-201.96 0.02,-278.59l-122.72 -122.72c-76.63,-76.63 -76.63,-201.94 0,-278.57zm629.85 1744.18l0 0c76.63,-76.63 202.18,-76.4 278.57,0l231.97 231.96c76.42,76.42 76.63,201.94 0,278.57l0 0c-76.63,76.63 -201.94,76.63 -278.57,0l-231.97 -231.96c-76.63,-76.63 -76.63,-201.94 0,-278.57z"/>
 </g>
</svg>
